PathFileType	4	(X/Y/Z)	Run_500 03
DataRate	CameraRate	NumFrames	NumMarkers	Units	OrigDataRate	OrigDataStartFrame	OrigNumFrames
100	100	6	42	mm	100	126	128
Frame#	Time	RASI			LPSI			RPSI			RTH1			RTH2			RTH3			LTH1			LTH2			LTH3			RTB1			RTB2			RTB3			LTB1			LTB2			LTB3			RCAL			RTOE			RMT5			LCAL			LTOE			LMT5			LACR			RACR			CLAV			C7			RUA1			RUA2			RUA3			RLEL			RMEL			LUA1			LUA2			LUA3			LLEL			LMEL			RFAsuperior			RFAradius			RFAulna			LFAsuperior			LFAradius			LFAulna			LASI			
		X1	Y1	Z1	X2	Y2	Z2	X3	Y3	Z3	X4	Y4	Z4	X5	Y5	Z5	X6	Y6	Z6	X7	Y7	Z7	X8	Y8	Z8	X9	Y9	Z9	X10	Y10	Z10	X11	Y11	Z11	X12	Y12	Z12	X13	Y13	Z13	X14	Y14	Z14	X15	Y15	Z15	X16	Y16	Z16	X17	Y17	Z17	X18	Y18	Z18	X19	Y19	Z19	X20	Y20	Z20	X21	Y21	Z21	X22	Y22	Z22	X23	Y23	Z23	X24	Y24	Z24	X25	Y25	Z25	X26	Y26	Z26	X27	Y27	Z27	X28	Y28	Z28	X29	Y29	Z29	X30	Y30	Z30	X31	Y31	Z31	X32	Y32	Z32	X33	Y33	Z33	X34	Y34	Z34	X35	Y35	Z35	X36	Y36	Z36	X37	Y37	Z37	X38	Y38	Z38	X39	Y39	Z39	X40	Y40	Z40	X41	Y41	Z41	X42	Y42	Z42	

116	1.54	744.361158	1048.747732	-221.708747	582.812785	1117.122447	-398.092294	575.1321799999999	1119.507223	-313.944033	728.805029	940.160452	-154.790677	871.451815	866.9359930000001	-167.062216	860.546495	741.700818	-180.861146	640.9474719999999	909.295439	-526.398789	644.864046	777.3312529999999	-499.509857	502.185336	696.68915	-495.494474	970.65881	522.591183	-237.330699	910.7187	424.506404	-192.823847	931.266003	325.040618	-255.965183	391.789749	487.079744	-431.806431	292.139333	488.376616	-491.634752	218.284063	375.116377	-421.190358	794.046369	203.28101	-287.989495	1024.588526	169.628023	-282.205334	990.540872	133.511837	-201.411022	46.251049	412.067235	-390.948874	103.775728	187.238077	-394.669128	48.400942	204.155333	-465.544746	791.326692	1551.613203	-500.99603	683.53443	1552.132284	-187.719752	795.699352	1515.264817	-300.923164	677.254736	1580.851858	-384.192414	579.754712	1490.398606	-121.664819	497.877894	1447.304994	-167.94938	496.829741	1407.507817	-95.85951300000001	433.47276	1331.633725	-71.11094	420.193172	1321.227378	-149.065047	813.838758	1454.27586	-602.323741	766.717899	1362.720038	-627.9425199999999	840.712363	1346.168013	-653.114835	877.672879	1268.053931	-682.895097	824.300606	1213.983554	-657.799401	438.637896	1252.068675	-51.021128	537.405465	1070.348565	-59.86169	468.106258	1058.645308	-54.221444	951.25919	1263.68879	-581.551091	971.852986	1310.070911	-434.128235	998.711496	1247.372571	-444.335756	751.304761	1008.343623	-465.509251	
117	1.55	745.378424	1049.493004	-223.05278	584.482755	1118.934003	-397.204949	576.749045	1120.47589	-312.816793	728.309024	938.204075	-154.509504	862.9338749999999	857.994093	-165.63973	850.609825	731.324673	-181.478894	643.687362	911.6075520000001	-526.992452	647.227705	779.270765	-501.044829	505.192384	697.990634	-497.22361	971.165131	513.0871059999999	-236.918605	923.582279	408.706789	-193.155378	956.0895850000001	312.45976	-256.14355	387.379574	493.013804	-434.390862	287.34175	503.417711	-492.720729	205.277501	397.800956	-421.238198	834.4386459999999	176.595258	-289.531868	1066.796025	168.252438	-282.551693	1036.83285	126.080209	-203.792699	38.818669	449.903586	-388.85204	73.607445	219.591556	-391.988578	18.395171	241.753358	-461.766842	791.720176	1555.0226	-497.967011	683.736734	1553.294682	-185.496581	795.968581	1516.84167	-299.144441	677.764696	1583.37125	-381.652195	578.953045	1491.905079	-119.893045	498.037951	1447.993326	-169.319613	495.661438	1408.510253	-97.234156	432.410343	1332.59237	-72.65560499999999	420.516489	1321.756894	-150.722041	813.929264	1458.283815	-600.253028	766.222984	1367.00522	-626.701598	840.451629	1350.514235	-651.762005	877.374336	1271.715805	-680.739328	822.121407	1218.567843	-657.451838	437.560846	1252.879555	-52.262493	537.427304	1071.408411	-58.599839	467.971366	1059.279253	-55.602401	948.866433	1263.63388	-578.300646	967.505615	1306.302855	-428.933154	993.15234	1243.371021	-440.455092	753.409586	1011.086389	-466.400126	
118	1.56	746.457268	1048.790376	-224.53906	585.956836	1119.337468	-396.53996	578.053283	1119.665447	-311.936141	727.798305	935.0391080000001	-154.25823	852.161029	846.222359	-164.281314	838.001918	718.55949	-182.106889	646.995056	912.862195	-528.07165	650.31955	780.2252099999999	-502.993913	509.205357	698.035959	-498.794137	968.801317	503.46209	-237.376312	932.3186480000001	395.146163	-193.474036	975.629462	302.665142	-255.59792	385.491545	497.640645	-436.632074	285.872528	517.903014	-493.271313	196.548049	421.088125	-420.963619	869.3242299999999	155.611605	-290.199106	1100.991196	170.554173	-281.771166	1075.283377	122.886769	-204.482327	36.197349	487.614934	-385.131014	48.505243	254.447036	-392.252402	-6.450975	282.750895	-459.828726	791.4131159999999	1557.334504	-495.344539	684.327408	1553.280682	-182.94561	796.073657	1517.162034	-297.328407	678.123516	1585.203519	-378.700361	578.657099	1491.461975	-118.208012	498.902901	1446.50579	-170.269766	495.63655	1407.686987	-97.99463900000001	432.762096	1331.410149	-73.279346	422.252729	1320.086675	-151.388023	812.6071930000001	1461.080296	-598.462284	763.986454	1370.511621	-625.4047409999999	838.38213	1353.370328	-650.4680990000001	874.638073	1273.717731	-679.0399629999999	817.38685	1221.894181	-657.882579	437.986075	1251.518842	-52.578753	538.930938	1070.244569	-57.065729	469.460893	1057.713486	-56.092389	944.765754	1259.738028	-576.2188599999999	963.897048	1297.388312	-425.121171	986.434844	1234.024574	-438.577264	755.831313	1012.890273	-467.209837	
119	1.57	747.441279	1046.834207	-225.731033	587.287062	1118.249944	-396.401746	578.844904	1117.120449	-311.832748	726.614356	929.335766	-153.720349	840.855127	831.582994	-163.807968	824.134092	704.511577	-182.891839	650.62904	913.032693	-529.495637	654.324675	779.94096	-505.237113	514.744831	696.425873	-500.575319	964.3142810000001	494.601244	-238.050383	935.960438	384.405692	-193.511244	988.767743	295.593165	-254.127009	386.037776	500.959932	-438.563075	287.727683	531.455989	-493.232631	191.826604	444.064633	-420.222313	895.583368	140.724506	-290.669137	1125.076005	173.79368	-278.980218	1102.496967	121.878602	-202.922833	38.088425	524.0628830000001	-380.419162	29.315913	291.483354	-395.244185	-24.298097	326.306036	-460.272451	790.586102	1558.382794	-493.077989	685.232198	1551.861083	-180.02024	796.162431	1516.071493	-295.555034	678.191047	1585.961186	-375.290851	578.776429	1488.986463	-116.471444	500.342433	1442.992146	-170.520908	496.63676	1404.833744	-98.013516	434.379697	1327.898132	-72.77207900000001	425.226041	1316.04229	-150.824436	810.217312	1462.623962	-596.812721	760.128609	1373.11318	-623.8500770000001	834.520199	1354.728693	-649.363048	869.501346	1274.105763	-677.960688	810.1642849999999	1223.996744	-658.897189	439.903271	1247.791894	-51.775979	542.1023300000001	1066.843938	-55.150348	472.701441	1053.806322	-55.501811	938.900316	1252.522893	-575.645453	960.405577	1283.705267	-423.047764	978.6543349999999	1219.926691	-439.126328	758.411069	1013.686504	-467.926363	
120	1.58	748.219004	1043.784555	-226.20257	588.455729	1115.664285	-396.764151	579.187589	1113.137486	-312.652493	724.545205	920.816994	-152.83277	830.609734	815.363672	-164.361908	811.148728	690.8713749999999	-183.810781	654.336056	911.916227	-530.795944	659.261968	778.1065610000001	-507.366337	521.975489	692.785198	-502.639837	958.461466	486.816522	-238.452697	934.669296	375.802178	-193.64306	995.059526	290.114823	-252.373738	388.998043	503.00016	-440.40857	293.032593	543.686202	-493.044763	190.620453	465.704925	-419.40615	911.1553280000001	130.922921	-292.167454	1138.193632	174.511924	-273.746726	1116.386508	119.974685	-199.251778	44.776863	558.609764	-375.818407	16.203476	329.230157	-399.387848	-34.571297	370.538746	-462.364928	789.4701669999999	1558.026819	-490.880659	686.288987	1548.850249	-176.75454	796.305476	1513.624217	-293.871393	677.897254	1585.236217	-371.523589	579.35056	1484.602268	-114.134327	502.248322	1437.420715	-169.854551	498.517051	1399.672273	-97.140151	437.215571	1321.906137	-70.922703	429.067838	1309.50233	-148.868434	806.866612	1462.793142	-595.300855	754.833087	1374.57317	-622.104886	828.9501310000001	1354.655665	-648.719443	862.151084	1272.974326	-677.561078	800.488354	1225.006766	-659.981949	443.397642	1241.578526	-49.709512	547.15598	1061.182628	-52.822837	477.860287	1047.522262	-53.813486	931.331499	1242.663557	-576.884648	956.24991	1265.80022	-422.934401	970.0069109999999	1201.820111	-442.501596	760.932177	1013.434277	-468.579545	
121	1.59	748.551027	1039.295025	-225.947047	589.304548	1111.700364	-397.434974	579.242703	1108.206895	-314.042295	721.666186	910.662787	-151.942562	822.199672	800.332086	-164.888971	800.910992	679.369451	-184.890437	658.020532	909.130166	-531.635792	665.091563	774.564993	-508.970151	530.634009	686.976025	-504.816461	951.738381	479.648059	-238.831531	929.515713	368.010525	-194.526136	994.730629	284.498632	-251.473257	394.43702	503.741752	-442.326885	301.943799	554.179995	-493.346965	192.685888	485.365079	-419.086904	915.693113	123.90049	-295.440234	1140.952577	170.310366	-267.263802	1117.329101	114.174991	-194.881255	56.52149	590.895356	-372.431378	9.353624	365.892066	-402.953574	-37.418006	413.171051	-464.87686	788.208698	1556.211798	-488.49615	687.377071	1544.172631	-173.283723	796.489761	1509.994908	-292.13678	677.305214	1582.780902	-367.600404	580.6044419999999	1478.504797	-110.638819	504.552419	1429.582694	-168.063868	501.212417	1392.093333	-95.075782	441.334292	1313.391349	-67.610674	433.48984	1300.471416	-145.453538	802.482205	1461.520474	-594.012381	748.336383	1374.713421	-620.3944320000001	821.900143	1353.226236	-648.672965	852.872884	1270.446266	-677.766165	788.6376729999999	1225.023984	-660.785212	448.569876	1232.89017	-46.351883	554.282693	1053.267135	-50.212326	485.12034	1038.976697	-51.137622	922.14005	1230.80736	-579.957115	950.860034	1244.306435	-424.93296	960.567013	1180.553727	-448.879291	763.138192	1012.013198	-469.08411	
